<?xml version="1.0" encoding="utf-8"?>
<!DOCTYPE svg PUBLIC "-//W3C//DTD SVG 1.1//EN" "http://www.w3.org/Graphics/SVG/1.1/DTD/svg11.dtd">
<svg style="width:308px;height:308px;" version="1.1" id="图形" xmlns="http://www.w3.org/2000/svg" xmlns:xlink="http://www.w3.org/1999/xlink" x="0px" y="0px" width="1024px" height="1024px" viewBox="0 0 1024 1024" enable-background="new 0 0 1024 1024" xml:space="preserve">
  <path class="svgpath" data-index="path_0" fill="#56abe4" d="M861.799 514.855c0 31.929-26.124 58.054-58.053 58.054L220.309 572.909c-31.93 0-58.054-26.125-58.054-58.054l0-29.013c0-31.929 26.124-58.053 58.054-58.053l583.438 0c31.93 0 58.053 26.124 58.053 58.053L861.8 514.855zM526.532 150.574c31.931 0 58.054 26.125 58.054 58.054l0 583.438c0 31.931-26.124 58.054-58.054 58.054l-29.011 0c-31.93 0-58.054-26.124-58.054-58.054L439.467 208.628c0-31.929 26.124-58.054 58.054-58.054L526.532 150.574z" />

</svg>
